<svg xmlns="http://www.w3.org/2000/svg" viewBox="0 0 1960 954" preserveAspectRatio="xMidYMid" width="1960" height="954" xmlns:xlink="http://www.w3.org/1999/xlink" style="shape-rendering:auto;display:block;background-position-x:0%;background-position-y:0%;background-size:auto;background-origin:padding-box;background-clip:border-box;background:scroll rgba(0, 0, 0, 0) none  repeat;width:1960px;height:954px;;animation:none"><g><linearGradient y2="0" y1="0" x2="1" x1="0" id="lg-p266f1fbvd"><stop offset="0" stop-color="#d53a3a"></stop>

  
<stop offset="1" stop-color="#8face1"></stop></linearGradient>
<path opacity="0.4" fill="url(#lg-p266f1fbvd)" d="M 0 0 L 0 624.29 Q 196 562.33 392 515.74 T 784 561.8 T 1176 420.56 T 1568 470.32 T 1960 370.21 L 1960 0 Z" style="fill:url('#lg-p266f1fbvd');opacity:0.4;;animation:none"></path>
<path opacity="0.4" fill="url(#lg-p266f1fbvd)" d="M 0 0 L 0 644.508 Q 196 634.78 392 616.715 T 784 437.986 T 1176 402.247 T 1568 409.695 T 1960 299.944 L 1960 0 Z" style="fill:url('#lg-p266f1fbvd');opacity:0.4;;animation:none"></path>
<path opacity="0.4" fill="url(#lg-p266f1fbvd)" d="M 0 0 L 0 656.416 Q 196 670.102 392 628.114 T 784 545.91 T 1176 360.445 T 1568 325.343 T 1960 254.51 L 1960 0 Z" style="fill:url('#lg-p266f1fbvd');opacity:0.4;;animation:none"></path>
<path opacity="0.4" fill="url(#lg-p266f1fbvd)" d="M 0 0 L 0 692.512 Q 196 503.198 392 481.934 T 784 492.688 T 1176 491.988 T 1568 378.041 T 1960 320.475 L 1960 0 Z" style="fill:url('#lg-p266f1fbvd');opacity:0.4;;animation:none"></path>
<path opacity="0.4" fill="url(#lg-p266f1fbvd)" d="M 0 0 L 0 590.925 Q 196 576.588 392 554.505 T 784 533.38 T 1176 427.128 T 1568 386.847 T 1960 397.091 L 1960 0 Z" style="fill:url('#lg-p266f1fbvd');opacity:0.4;;animation:none"></path>
<g></g></g><!-- [ldio] generated by https://loading.io --></svg>