<?xml version="1.0" standalone="no"?>
<!DOCTYPE svg PUBLIC "-//W3C//DTD SVG 20010904//EN"
 "http://www.w3.org/TR/2001/REC-SVG-20010904/DTD/svg10.dtd">
<svg version="1.0" xmlns="http://www.w3.org/2000/svg"
 width="1038.000000pt" height="777.000000pt" viewBox="0 0 1038.000000 777.000000"
 preserveAspectRatio="xMidYMid meet">

<g transform="translate(0.000000,777.000000) scale(0.100000,-0.100000)"
fill="#000000" stroke="none">
<path d="M7407 7744 c-4 -4 -1667 -10 -3696 -13 -2029 -3 -3693 -10 -3698 -14
-4 -5 -9 -1743 -11 -3863 l-2 -3854 5190 0 5190 0 0 3533 c0 1944 -3 3682 -7
3864 l-6 331 -886 6 c-487 3 -1152 8 -1476 12 -325 3 -594 2 -598 -2z m-2148
-563 c39 -36 41 -76 6 -135 -23 -39 -25 -51 -20 -117 9 -113 55 -366 80 -439
47 -137 75 -225 75 -238 0 -14 106 -232 148 -304 68 -117 163 -206 287 -269
75 -38 84 -41 139 -34 121 13 260 80 405 195 44 35 196 197 248 266 75 97 131
176 161 229 19 33 52 89 73 125 56 96 109 200 125 245 13 34 13 50 3 103 -12
58 -11 64 8 90 23 30 70 48 106 38 34 -8 71 -69 63 -101 -4 -14 -20 -40 -36
-59 -47 -53 -77 -131 -100 -256 -12 -63 -32 -173 -45 -245 -14 -71 -34 -186
-45 -255 -11 -69 -30 -159 -41 -200 -10 -41 -24 -109 -29 -150 -5 -41 -20
-132 -34 -201 -14 -70 -26 -140 -26 -157 0 -61 110 -57 -1604 -60 -864 -1
-1581 0 -1592 3 -28 6 -41 43 -49 136 -3 42 -14 105 -24 141 -10 36 -22 94
-26 129 -4 35 -29 174 -56 309 -26 135 -58 306 -69 380 -41 267 -65 344 -131
416 -27 30 -49 64 -49 75 0 33 39 88 66 95 41 10 92 -5 115 -34 19 -24 20 -35
15 -102 -5 -51 -3 -86 6 -110 12 -33 115 -226 157 -295 10 -16 35 -57 55 -90
20 -33 82 -118 138 -188 205 -258 398 -408 592 -458 68 -17 69 -17 147 5 43
13 97 35 119 51 114 79 218 213 302 392 53 112 147 385 172 498 9 39 22 93 29
120 8 28 17 107 20 176 l6 127 -29 37 c-38 48 -38 65 4 109 44 47 90 49 135 7z
m1511 -2101 c13 -20 13 -370 0 -390 -7 -11 -37 -17 -112 -21 -128 -8 -2985
-11 -3014 -3 -12 3 -27 17 -33 30 -12 28 -15 362 -3 380 4 6 14 14 22 17 8 3
716 5 1573 4 1372 -2 1559 -4 1567 -17z m-2803 -513 c4 -5 11 -498 14 -1095 4
-598 7 -1088 8 -1089 9 -17 79 45 358 316 180 175 357 349 393 386 36 38 208
210 383 382 l319 313 245 0 c237 0 244 -1 241 -20 -2 -10 -140 -160 -308 -332
-168 -172 -332 -341 -364 -375 l-58 -62 27 -33 c38 -45 366 -378 559 -567 132
-130 157 -159 154 -180 l-3 -26 -345 0 c-263 0 -350 3 -367 13 -20 11 -23 21
-23 80 0 125 -3 132 -114 254 -56 62 -121 126 -144 142 l-43 30 -459 -459
-459 -459 -3 -192 c-2 -106 -7 -196 -11 -201 -5 -4 -84 -8 -176 -8 -131 0
-172 3 -185 14 -16 14 -17 105 -14 1575 2 859 7 1569 12 1578 4 9 15 19 24 22
29 8 330 1 339 -7z m2748 4 l60 -6 3 -539 c2 -500 1 -541 -15 -567 -10 -15
-101 -114 -203 -220 -216 -224 -227 -238 -208 -273 7 -13 95 -109 194 -213
100 -103 195 -203 210 -222 l29 -35 3 -548 3 -547 -28 -8 c-15 -4 -549 -8
-1186 -8 -1018 0 -1159 2 -1167 15 -5 8 -10 61 -10 116 l0 101 170 167 c104
102 178 166 190 166 18 0 20 -7 20 -74 l0 -74 33 -13 c24 -9 219 -13 799 -17
l766 -4 14 23 c10 18 14 91 16 293 l3 269 -283 286 c-156 157 -297 301 -313
319 l-29 33 312 312 313 313 -3 286 c-2 158 -7 290 -11 295 -5 4 -366 8 -803
8 -696 0 -796 -2 -804 -15 -5 -8 -10 -116 -10 -240 l0 -225 -169 -167 c-93
-93 -175 -168 -184 -168 -9 0 -17 14 -21 38 -7 41 1 878 10 1039 l6 102 81 4
c154 6 2152 5 2212 -2z m-1603 -3466 l3 -135 -25 0 -25 0 2 127 c2 121 7 142
35 143 4 0 8 -61 10 -135z m-1210 38 l-3 -58 56 58 c31 31 61 57 65 57 5 0
-14 -21 -41 -47 l-51 -48 31 -8 c25 -6 37 -19 60 -68 28 -58 28 -60 7 -57 -15
2 -29 21 -49 61 -23 48 -31 58 -50 55 -20 -3 -22 -9 -22 -60 0 -57 0 -58 -28
-58 -25 0 -27 2 -16 21 6 13 10 58 7 115 -3 88 -2 94 17 94 18 0 20 -6 17 -57z
m218 12 c0 -46 8 -53 44 -39 22 8 21 60 -1 73 -16 9 -15 10 8 11 14 0 30 -5
37 -12 17 -17 15 -55 -5 -66 -14 -8 -12 -12 15 -26 32 -17 40 -43 26 -81 -10
-26 -59 -45 -116 -45 l-53 0 0 115 c0 113 0 115 23 115 20 0 22 -5 22 -45z
m272 -5 c-4 -50 -4 -50 27 -50 53 0 67 70 18 90 -22 9 -22 9 1 9 60 2 87 -61
40 -94 -17 -11 -20 -18 -11 -23 7 -4 21 -29 33 -54 11 -26 26 -49 33 -51 6 -3
-1 -6 -16 -6 -25 -1 -31 6 -53 54 -25 57 -47 76 -67 56 -8 -8 -8 -25 -1 -61
10 -50 10 -50 -15 -50 l-26 0 0 115 c0 108 1 115 20 115 18 0 20 -5 17 -50z
m880 -3 c31 -98 49 -132 60 -116 7 11 8 9 3 -6 -4 -11 -10 -28 -12 -37 -3 -10
-9 -18 -13 -18 -4 0 -27 46 -50 103 -23 56 -47 108 -52 115 -8 9 -3 12 18 12
26 0 31 -6 46 -53z m127 31 c-16 -32 -17 -32 -15 -4 0 14 7 26 14 26 10 0 10
-5 1 -22z m449 -39 l27 -2 -28 -4 c-28 -4 -28 -5 -25 -71 3 -62 5 -67 25 -66
18 0 20 -2 11 -13 -6 -8 -23 -13 -37 -11 -25 3 -26 5 -29 81 -2 49 -7 77 -14
77 -6 0 -1 12 13 26 23 25 24 25 27 5 2 -15 11 -21 30 -22z m-1157 -28 c36
-36 37 -70 3 -110 -21 -25 -33 -31 -65 -31 -79 0 -116 78 -64 137 l24 28 -8
-30 c-8 -31 3 -90 22 -113 6 -7 24 -12 41 -10 30 3 31 4 31 55 -1 56 -20 89
-59 96 -13 3 -9 5 12 6 25 1 41 -7 63 -28z m89 11 c0 -10 11 -40 24 -66 20
-40 22 -53 14 -72 -11 -23 -13 -19 -44 52 -19 42 -39 83 -45 90 -9 11 -6 14
20 14 23 0 31 -4 31 -18z m99 1 c-7 -10 -15 -20 -16 -22 -2 -2 -3 5 -3 17 0
14 6 22 16 22 14 0 15 -3 3 -17z m133 0 c10 -11 17 -44 20 -85 3 -60 2 -68
-14 -68 -18 0 -23 21 -20 78 0 12 -5 22 -11 22 -8 0 -7 4 2 9 12 8 12 12 2 25
-16 19 -62 21 -80 4 -11 -11 -12 -10 -6 0 18 32 84 41 107 15z m359 -10 c-12
-20 -14 -14 -5 12 4 9 9 14 11 11 3 -2 0 -13 -6 -23z m157 11 c12 -8 22 -22
22 -30 0 -22 -37 -17 -43 6 -3 11 -16 24 -29 29 l-23 10 25 0 c14 1 36 -6 48
-15z m94 -69 c3 -85 3 -85 -22 -85 -25 0 -25 1 -23 76 1 72 9 93 35 94 3 0 8
-38 10 -85z m98 75 c10 -6 17 -33 20 -85 5 -75 5 -75 -20 -75 -24 0 -25 2 -25
72 l0 73 -29 3 c-22 3 -26 6 -15 13 18 11 50 11 69 -1z m226 -141 c11 -9 20
-9 40 0 24 10 25 15 23 72 -2 49 1 63 14 71 22 12 25 2 29 -90 3 -69 2 -72
-19 -72 -13 0 -23 5 -23 10 0 7 -6 7 -19 0 -27 -14 -66 -13 -78 3 -6 6 -13 42
-16 79 -4 57 -2 67 12 70 13 3 16 -8 19 -63 2 -44 8 -71 18 -80z m184 135 c0
-14 2 -14 22 0 28 20 58 21 58 2 0 -10 -13 -16 -37 -18 l-38 -3 0 -68 c0 -65
-1 -67 -25 -67 -25 0 -25 1 -23 76 1 52 5 79 15 85 20 13 28 11 28 -7z m218
-4 c27 -25 28 -40 3 -40 -10 0 -21 9 -24 20 -3 11 -16 24 -29 29 l-23 10 26 0
c14 1 35 -8 47 -19z m161 -5 c3 -19 2 -19 -15 -4 -11 9 -26 19 -34 22 -8 4 -2
5 15 4 21 -1 31 -8 34 -22z m-1067 3 c-7 -7 -12 -29 -12 -49 0 -49 22 -72 70
-71 3 0 16 3 30 6 l25 7 -24 -20 c-23 -21 -64 -27 -96 -15 -43 17 -49 112 -8
142 21 15 31 16 15 0z m812 -17 c-18 -37 -3 -84 32 -100 21 -9 32 -8 57 4 l31
15 -24 -25 c-69 -73 -174 16 -121 103 25 40 45 43 25 3z m216 -33 c25 -13 47
-31 48 -41 4 -20 -24 -57 -42 -56 -6 0 -6 3 2 6 28 11 12 44 -32 62 -49 21
-61 42 -44 74 l12 22 5 -22 c4 -14 24 -32 51 -45z m-1119 -5 c-12 -20 -14 -14
-5 12 4 9 9 14 11 11 3 -2 0 -13 -6 -23z m-419 -15 c-33 -33 3 -74 38 -43 11
10 20 14 20 8 0 -5 -9 -18 -19 -27 -46 -42 -114 11 -71 54 11 11 25 20 32 20
9 0 9 -3 0 -12z m1512 -77 c-2 -2 -15 -1 -29 3 -16 4 -25 13 -25 27 0 20 1 20
29 -3 15 -13 27 -25 25 -27z m-1659 -41 c-20 -22 -80 -28 -72 -7 2 6 18 12 35
12 16 0 34 3 38 8 17 16 16 6 -1 -13z"/>
<path d="M4120 1040 c0 -60 0 -60 29 -60 37 0 61 23 61 59 0 34 -28 61 -63 61
-26 0 -27 -2 -27 -60z"/>
</g>
</svg>
