<?xml version="1.0" standalone="no"?>
<!DOCTYPE svg PUBLIC "-//W3C//DTD SVG 20010904//EN"
 "http://www.w3.org/TR/2001/REC-SVG-20010904/DTD/svg10.dtd">
<svg version="1.0" xmlns="http://www.w3.org/2000/svg"
 width="400.000000pt" height="400.000000pt" viewBox="0 0 400.000000 400.000000"
 preserveAspectRatio="xMidYMid meet">

<g transform="translate(0.000000,400.000000) scale(0.100000,-0.100000)"
fill="#000000" stroke="none">
<path d="M1033 3065 c-77 -21 -130 -51 -182 -104 -192 -191 -132 -513 117
-629 50 -24 69 -27 157 -27 89 0 107 3 160 28 245 114 304 439 114 629 -54 54
-122 91 -197 107 -67 14 -104 13 -169 -4z"/>
<path d="M2785 3066 c-72 -18 -131 -51 -184 -105 -190 -189 -131 -514 114
-628 53 -25 71 -28 160 -28 88 0 107 3 157 27 249 116 309 438 117 629 -53 54
-105 83 -186 104 -67 18 -110 18 -178 1z"/>
<path d="M1898 2757 c-66 -19 -155 -75 -194 -123 -18 -22 -46 -67 -61 -100
-24 -51 -28 -71 -28 -154 0 -86 3 -101 32 -162 40 -85 106 -151 191 -191 61
-29 76 -32 162 -32 86 0 101 3 162 32 85 40 151 106 191 191 29 61 32 76 32
162 0 86 -3 101 -32 162 -63 133 -185 216 -329 224 -48 2 -97 -1 -126 -9z"/>
<path d="M845 2230 c-163 -23 -306 -123 -385 -271 -49 -93 -60 -160 -60 -390
l0 -207 58 -20 c167 -61 360 -98 562 -109 l128 -6 4 164 c4 145 7 172 30 231
64 171 171 289 328 367 l99 48 -26 34 c-14 19 -36 57 -49 85 -21 45 -30 53
-67 64 -51 15 -533 23 -622 10z"/>
<path d="M2620 2234 c-126 -21 -128 -22 -153 -77 -14 -29 -36 -67 -50 -86
l-26 -34 99 -48 c157 -78 264 -196 328 -367 23 -59 26 -86 30 -231 l4 -164
128 6 c202 11 395 48 563 109 l57 20 0 207 c0 230 -11 297 -60 390 -64 120
-161 202 -294 249 -68 25 -81 26 -336 28 -146 1 -276 1 -290 -2z"/>
<path d="M1680 1914 c-180 -38 -332 -182 -386 -363 -10 -36 -15 -108 -15 -271
-1 -121 1 -223 4 -226 14 -14 195 -68 301 -89 271 -55 561 -55 832 0 106 21
287 75 301 89 3 3 5 105 4 226 0 163 -5 235 -15 271 -55 184 -207 325 -391
364 -95 20 -541 20 -635 -1z"/>
</g>
</svg>
