<?xml version="1.0" standalone="no"?>
<!DOCTYPE svg PUBLIC "-//W3C//DTD SVG 20010904//EN"
 "http://www.w3.org/TR/2001/REC-SVG-20010904/DTD/svg10.dtd">
<svg version="1.0" xmlns="http://www.w3.org/2000/svg"
 width="512.000000pt" height="512.000000pt" viewBox="0 0 512.000000 512.000000"
 preserveAspectRatio="xMidYMid meet">

<g transform="translate(0.000000,512.000000) scale(0.100000,-0.100000)"
fill="#000000" stroke="none">
<path d="M3426 4909 c-436 -46 -917 -196 -1411 -439 -272 -134 -337 -172 -512
-303 -502 -375 -921 -824 -1164 -1246 -55 -95 -59 -106 -59 -166 0 -97 27
-282 55 -381 63 -220 205 -432 322 -481 93 -38 302 37 490 178 106 80 352 308
403 374 51 66 69 113 70 181 0 69 -22 139 -68 210 -47 72 -153 180 -216 220
-46 28 -47 30 -40 69 33 205 208 405 566 648 292 199 546 324 737 362 90 19
212 16 284 -5 31 -9 37 -15 37 -38 0 -15 9 -65 20 -111 43 -178 125 -293 250
-351 106 -48 157 -42 376 44 412 164 629 313 691 474 20 54 9 115 -43 223 -93
194 -289 377 -548 513 -75 39 -91 41 -240 25z"/>
<path d="M2264 3565 c-25 -15 -47 -38 -57 -62 -20 -44 -470 -1573 -465 -1578
2 -2 42 10 89 26 78 28 87 34 96 63 5 17 101 344 213 725 l204 693 26 -6 c29
-6 2372 -695 2376 -699 4 -3 -522 -1786 -529 -1793 -3 -3 -247 65 -542 151
-294 87 -537 156 -539 154 -2 -2 -1 -39 1 -82 l6 -77 81 -25 c624 -188 975
-286 1013 -282 48 5 97 37 117 75 27 53 548 1845 548 1884 -1 45 -26 92 -64
121 -33 24 -2448 737 -2498 737 -19 0 -53 -11 -76 -25z"/>
<path d="M2411 3241 c-30 -30 -26 -72 12 -127 156 -232 830 -1194 836 -1194
21 0 1318 612 1329 627 19 26 15 80 -8 103 -11 11 -33 20 -48 20 -17 0 -281
-118 -618 -275 -324 -152 -595 -274 -601 -273 -7 2 -189 257 -405 568 l-393
565 -42 3 c-32 2 -47 -2 -62 -17z"/>
<path d="M2537 2117 c-129 -74 -173 -103 -160 -108 10 -3 59 -16 110 -28 l92
-22 111 62 c61 34 118 71 126 83 20 29 17 73 -6 96 -39 39 -80 26 -273 -83z"/>
<path d="M3707 1918 c-9 -7 -21 -26 -27 -41 -9 -26 6 -61 186 -415 108 -213
205 -395 216 -404 46 -40 128 -8 128 50 0 28 -372 765 -403 800 -23 25 -73 30
-100 10z"/>
<path d="M2000 1831 c-352 -75 -602 -342 -660 -704 -16 -98 -8 -331 15 -412
50 -182 175 -335 342 -418 136 -67 212 -82 428 -82 193 0 280 13 393 57 l57
23 3 97 3 97 -73 -25 c-250 -87 -537 -85 -701 3 -174 95 -267 296 -253 553 11
198 72 349 190 465 122 121 261 175 456 178 58 0 130 -5 160 -12 274 -65 427
-306 392 -620 -20 -183 -84 -276 -167 -245 -8 4 -23 20 -32 37 -14 27 -15 60
-7 262 4 126 8 253 8 280 l1 50 -70 18 c-117 29 -281 41 -372 28 -217 -32
-364 -176 -395 -388 -14 -94 -1 -205 31 -279 27 -60 104 -139 165 -169 138
-66 339 -43 425 49 31 33 42 33 69 -3 11 -16 42 -39 67 -51 40 -19 58 -22 133
-18 72 3 96 9 141 33 99 54 175 168 207 312 26 116 16 321 -20 428 -36 106
-76 174 -148 251 -103 109 -233 179 -395 210 -103 19 -288 17 -393 -5z m325
-553 c9 -9 -17 -299 -31 -348 -30 -104 -86 -150 -181 -150 -65 0 -112 27 -143
81 -35 61 -36 199 -1 275 48 109 138 158 274 150 43 -2 80 -6 82 -8z"/>
</g>
</svg>
