<?xml version="1.0" standalone="no"?>
<!DOCTYPE svg PUBLIC "-//W3C//DTD SVG 20010904//EN"
 "http://www.w3.org/TR/2001/REC-SVG-20010904/DTD/svg10.dtd">
<svg version="1.0" xmlns="http://www.w3.org/2000/svg"
 width="626.000000pt" height="626.000000pt" viewBox="0 0 626.000000 626.000000"
 preserveAspectRatio="xMidYMid meet">

<g transform="translate(0.000000,626.000000) scale(0.100000,-0.100000)"
fill="#000000" stroke="none">
<path d="M3260 4529 c-209 -14 -412 -77 -603 -187 -136 -77 -172 -127 -127
-172 30 -30 55 -25 129 24 137 91 308 161 468 193 108 21 346 23 453 4 368
-66 699 -295 886 -613 202 -343 232 -776 80 -1136 -168 -399 -506 -675 -938
-768 -114 -25 -360 -25 -480 -1 -166 33 -322 97 -471 193 -75 49 -98 53 -127
24 -45 -45 -18 -86 105 -161 326 -198 726 -254 1104 -153 509 136 902 562
1008 1091 24 124 24 405 0 526 -113 561 -545 999 -1097 1112 -107 22 -267 32
-390 24z"/>
<path d="M2675 3775 c-24 -23 -25 -30 -25 -140 l0 -115 -558 0 c-488 0 -560
-2 -580 -16 l-22 -15 0 -358 c0 -334 1 -359 18 -374 17 -15 72 -17 580 -17
l562 0 0 -111 c0 -61 5 -119 10 -129 14 -26 47 -42 70 -35 31 10 763 613 778
640 11 21 11 29 0 50 -13 24 -741 626 -773 639 -27 10 -34 8 -60 -19z m398
-415 c152 -124 276 -227 276 -230 0 -6 -547 -454 -560 -458 -5 -2 -9 29 -9 70
0 50 -5 81 -16 96 l-15 22 -563 0 c-476 0 -565 2 -569 14 -3 8 -6 127 -7 265
l-1 251 567 2 566 3 19 24 c15 18 19 39 19 98 0 41 4 73 9 71 5 -1 133 -104
284 -228z"/>
</g>
</svg>
