<?xml version="1.0" standalone="no"?>
<!DOCTYPE svg PUBLIC "-//W3C//DTD SVG 20010904//EN"
 "http://www.w3.org/TR/2001/REC-SVG-20010904/DTD/svg10.dtd">
<svg version="1.0" xmlns="http://www.w3.org/2000/svg"
 width="800.000000pt" height="800.000000pt" viewBox="0 0 800.000000 800.000000"
 preserveAspectRatio="xMidYMid meet">

<g transform="translate(0.000000,800.000000) scale(0.100000,-0.100000)"
fill="#000000" stroke="none">
<path d="M2335 7318 c-497 -54 -822 -175 -1140 -423 -107 -83 -265 -249 -347
-365 -160 -226 -287 -540 -332 -825 -35 -221 -36 -268 -36 -1875 0 -1686 1
-1705 44 -1930 131 -672 584 -1209 1214 -1439 177 -65 331 -99 567 -127 85
-10 2968 -13 3215 -3 521 20 938 169 1286 461 391 329 612 786 667 1378 14
158 14 3179 -1 3311 -33 305 -89 515 -197 744 -96 205 -187 334 -355 509 -165
171 -309 276 -515 376 -222 108 -410 162 -685 198 -110 14 -312 16 -1715 18
-875 1 -1626 -3 -1670 -8z m3374 -664 c169 -24 277 -55 408 -115 309 -141 540
-405 656 -749 40 -117 54 -184 72 -330 14 -120 15 -311 12 -1705 -4 -1699 -1
-1605 -57 -1815 -129 -479 -498 -821 -1000 -926 -209 -43 -313 -45 -1930 -42
-1632 4 -1548 2 -1760 52 -369 87 -669 317 -829 633 -44 89 -98 257 -124 386
l-22 112 0 1665 c0 1758 -2 1690 45 1885 60 248 182 461 357 625 124 116 267
198 450 259 82 28 252 65 333 74 19 2 766 5 1659 5 1424 2 1637 0 1730 -14z"/>
<path d="M5781 6089 c-117 -20 -237 -113 -294 -229 -52 -104 -50 -252 4 -360
43 -88 145 -172 248 -205 76 -25 206 -17 281 17 171 78 273 270 236 447 -37
176 -166 303 -337 331 -35 5 -68 9 -74 9 -5 -1 -34 -5 -64 -10z"/>
<path d="M3710 5625 c-347 -60 -643 -195 -893 -408 -357 -303 -574 -706 -631
-1169 -20 -158 -20 -249 -1 -413 48 -409 220 -773 501 -1060 293 -299 647
-473 1079 -529 412 -54 862 53 1211 289 408 276 666 660 774 1150 17 77 23
146 27 301 7 245 -9 363 -77 598 -16 55 -93 233 -126 292 -103 185 -188 298
-324 434 -261 261 -557 420 -930 501 -127 28 -482 36 -610 14z m445 -646 c147
-20 326 -90 465 -180 81 -53 263 -234 314 -313 47 -72 107 -186 129 -246 132
-363 80 -753 -144 -1070 -148 -210 -392 -380 -649 -451 -96 -26 -262 -42 -365
-34 -284 20 -540 137 -741 339 -146 145 -238 302 -296 501 -139 481 59 1004
487 1283 232 152 510 211 800 171z"/>
</g>
</svg>
