<?xml version="1.0" standalone="no"?>
<!DOCTYPE svg PUBLIC "-//W3C//DTD SVG 20010904//EN"
 "http://www.w3.org/TR/2001/REC-SVG-20010904/DTD/svg10.dtd">
<svg version="1.0" xmlns="http://www.w3.org/2000/svg"
 width="840.000000pt" height="576.000000pt" viewBox="0 0 840.000000 576.000000"
 preserveAspectRatio="xMidYMid meet">

<g transform="translate(0.000000,576.000000) scale(0.100000,-0.100000)"
fill="000000" stroke="none">
<path d="M1284 5331 c-26 -16 -37 -35 -62 -108 -16 -48 -204 -596 -417 -1218
-228 -665 -388 -1144 -388 -1164 1 -22 10 -42 25 -56 16 -16 183 -78 537 -199
l514 -176 35 17 c20 10 39 25 44 33 5 8 186 535 404 1170 217 635 396 1155
398 1157 1 2 43 -12 92 -29 79 -29 104 -33 219 -36 162 -5 223 8 387 83 67 31
147 63 177 71 64 16 167 18 231 3 25 -5 465 -155 978 -332 l934 -321 -5 -31
c-9 -54 -48 -145 -81 -188 -67 -88 -176 -127 -303 -107 -69 11 -188 49 -701
224 l-283 97 -37 -18 c-32 -16 -40 -29 -77 -123 -51 -129 -74 -175 -137 -268
-166 -246 -401 -388 -678 -408 -137 -11 -295 13 -516 77 -107 31 -177 -84 -95
-154 33 -27 173 -69 311 -93 142 -24 352 -22 467 4 343 78 608 305 779 667 25
52 46 95 47 95 1 0 167 -57 367 -126 201 -69 403 -134 450 -146 158 -37 309
-21 423 45 67 39 152 138 193 223 35 72 74 226 74 291 0 74 30 62 -1032 427
-537 185 -1007 343 -1045 351 -154 33 -305 12 -478 -67 -181 -82 -213 -90
-340 -85 -101 4 -120 8 -235 51 -157 59 -1086 376 -1120 382 -15 3 -38 -3 -56
-15z m493 -330 c445 -152 413 -140 413 -154 0 -16 -750 -2201 -758 -2208 -5
-4 -784 255 -800 267 -2 1 163 487 367 1080 417 1216 392 1144 396 1144 2 0
173 -58 382 -129z"/>
<path d="M6645 5275 c-60 -30 -279 -137 -487 -239 -240 -117 -380 -191 -387
-204 -6 -12 -11 -35 -11 -52 0 -20 91 -216 261 -563 144 -292 301 -613 349
-712 48 -99 154 -315 235 -480 81 -165 170 -347 198 -404 l50 -104 -20 -17
c-12 -9 -117 -104 -233 -211 -356 -326 -600 -508 -925 -692 -101 -57 -1019
-510 -1875 -925 -147 -71 -183 -84 -225 -85 -55 0 -116 26 -152 65 -74 79 -68
215 13 289 16 15 261 140 544 279 283 138 524 260 535 271 28 27 25 92 -5 125
-45 47 -78 38 -370 -107 -146 -72 -301 -148 -345 -169 -44 -21 -264 -129 -490
-239 -369 -181 -414 -201 -460 -201 -167 1 -262 174 -174 317 30 49 -26 19
809 428 769 376 730 356 747 388 22 44 10 93 -30 117 -18 11 -41 20 -53 20
-11 0 -195 -86 -410 -191 -214 -105 -443 -217 -509 -249 -66 -32 -258 -125
-427 -208 -168 -82 -323 -155 -343 -162 -82 -27 -195 22 -234 102 -39 82 -22
186 41 245 13 12 190 104 393 204 1246 612 1151 563 1164 601 8 24 8 43 2 60
-12 33 -57 68 -86 68 -22 0 -215 -92 -1007 -482 -363 -178 -401 -192 -473
-168 -48 16 -101 63 -127 113 -28 56 -21 130 18 194 32 53 15 43 536 298 241
117 278 143 278 192 0 29 -17 63 -39 80 -42 32 -81 18 -463 -170 -363 -179
-375 -185 -430 -245 -76 -83 -101 -148 -102 -267 0 -120 25 -187 103 -265 31
-32 65 -62 75 -67 18 -10 18 -12 -7 -45 -137 -179 -105 -434 71 -563 67 -49
145 -76 219 -77 l63 0 0 -62 c0 -165 107 -317 260 -371 120 -43 223 -29 382
51 l88 44 0 -29 c0 -213 186 -402 394 -401 109 1 2 -48 1477 675 676 332 806
401 1044 563 244 164 364 264 734 605 l194 180 326 159 c179 88 389 191 467
228 143 68 184 101 184 145 0 24 -68 167 -375 790 -282 573 -462 939 -620
1261 -90 184 -151 297 -166 308 -38 26 -77 18 -194 -39z m356 -695 c138 -283
365 -747 504 -1031 139 -284 256 -525 259 -535 5 -16 -46 -44 -369 -203 -228
-112 -379 -181 -385 -175 -7 8 -370 743 -635 1289 -45 94 -153 314 -239 489
-86 175 -154 322 -151 325 15 15 751 367 757 362 4 -3 120 -238 259 -521z"/>
</g>
</svg>
