<?xml version="1.0" standalone="no"?>
<!DOCTYPE svg PUBLIC "-//W3C//DTD SVG 20010904//EN"
 "http://www.w3.org/TR/2001/REC-SVG-20010904/DTD/svg10.dtd">
<svg version="1.0" xmlns="http://www.w3.org/2000/svg"
 width="980.000000pt" height="980.000000pt" viewBox="0 0 980.000000 980.000000"
 preserveAspectRatio="xMidYMid meet">

<g transform="translate(0.000000,980.000000) scale(0.100000,-0.100000)"
fill="#000000" stroke="none">
<path d="M2783 6270 c-55 -25 -83 -70 -83 -135 0 -65 28 -110 83 -135 41 -19
92 -20 2117 -20 2025 0 2076 1 2117 20 113 51 112 220 -1 271 -40 18 -114 19
-2116 19 -2025 0 -2076 -1 -2117 -20z"/>
<path d="M2772 5030 c-89 -54 -97 -175 -17 -250 l27 -25 2106 -3 c2089 -2
2107 -2 2140 18 96 59 96 201 0 260 -33 20 -55 20 -2128 20 -2073 0 -2095 0
-2128 -20z"/>
<path d="M2784 3801 c-54 -25 -84 -73 -84 -137 0 -64 28 -110 83 -134 41 -19
92 -20 2116 -20 l2075 0 44 21 c56 28 82 69 82 134 0 65 -28 110 -83 135 -41
19 -92 20 -2117 20 -2002 0 -2076 -1 -2116 -19z"/>
</g>
</svg>
