<?xml version="1.0" standalone="no"?>
<!DOCTYPE svg PUBLIC "-//W3C//DTD SVG 20010904//EN"
 "http://www.w3.org/TR/2001/REC-SVG-20010904/DTD/svg10.dtd">
<svg version="1.0" xmlns="http://www.w3.org/2000/svg"
 width="512.000000pt" height="512.000000pt" viewBox="0 0 512.000000 512.000000"
 preserveAspectRatio="xMidYMid meet">

<g transform="translate(0.000000,512.000000) scale(0.100000,-0.100000)"
fill="#000000" stroke="none">
<path d="M2055 4670 c-145 -38 -246 -101 -355 -217 -111 -118 -200 -322 -200
-455 0 -37 6 -52 29 -77 24 -26 37 -31 74 -31 49 0 92 30 101 72 3 12 12 57
21 99 40 193 149 326 321 391 l59 23 1140 3 c1276 3 1215 6 1363 -68 135 -68
233 -185 279 -335 16 -55 18 -103 18 -560 0 -457 -2 -505 -18 -560 -63 -206
-222 -346 -442 -389 -92 -18 -135 -52 -135 -107 0 -100 77 -131 228 -89 252
70 458 267 549 525 l28 80 0 540 0 540 -31 88 c-86 239 -272 421 -522 511
l-87 31 -1175 2 c-1121 2 -1178 1 -1245 -17z"/>
<path d="M675 3619 c-193 -29 -379 -137 -508 -294 -27 -33 -69 -100 -93 -150
-75 -154 -75 -154 -72 -859 l3 -621 27 -80 c107 -314 418 -545 734 -545 l83 0
3 -293 3 -292 28 -57 c34 -69 92 -123 149 -139 58 -16 157 1 206 34 21 14 207
188 415 386 l379 360 706 3 707 3 65 24 c214 76 367 209 465 403 77 153 76
147 73 873 l-3 640 -27 80 c-83 243 -285 433 -543 511 -56 17 -141 18 -1400
20 -737 1 -1367 -2 -1400 -7z m2770 -224 c193 -50 340 -202 380 -392 12 -55
15 -185 15 -659 0 -556 -1 -595 -20 -668 -11 -43 -32 -101 -47 -129 -40 -74
-138 -168 -214 -206 -123 -60 -133 -61 -906 -61 l-703 0 -42 -38 c-46 -40
-606 -570 -724 -685 -58 -55 -76 -68 -93 -62 -21 6 -21 9 -21 346 0 374 -3
394 -59 423 -23 12 -62 16 -163 16 -161 0 -248 17 -347 67 -151 76 -260 230
-282 398 -6 51 -9 290 -7 655 4 561 4 577 26 641 58 173 200 304 383 353 84
23 2737 23 2824 1z"/>
<path d="M889 2741 c-47 -48 -37 -130 21 -164 26 -16 119 -17 1112 -17 1058 0
1084 1 1115 20 57 34 61 121 8 168 l-26 22 -1100 0 -1101 0 -29 -29z"/>
<path d="M889 2101 c-47 -48 -37 -130 21 -164 26 -16 119 -17 1112 -17 1058 0
1084 1 1115 20 57 34 61 121 8 168 l-26 22 -1100 0 -1101 0 -29 -29z"/>
</g>
</svg>
