<?xml version="1.0" standalone="no"?>
<!DOCTYPE svg PUBLIC "-//W3C//DTD SVG 20010904//EN"
 "http://www.w3.org/TR/2001/REC-SVG-20010904/DTD/svg10.dtd">
<svg version="1.0" xmlns="http://www.w3.org/2000/svg"
 width="840.000000pt" height="731.000000pt" viewBox="0 0 840.000000 731.000000"
 preserveAspectRatio="xMidYMid meet">

<g transform="translate(0.000000,731.000000) scale(0.100000,-0.100000)"
fill="#000000" stroke="none">
<path d="M3625 6900 c-1214 -54 -2010 -265 -2569 -683 -106 -80 -292 -261
-371 -362 -294 -377 -449 -838 -472 -1407 l-6 -158 815 0 816 0 7 63 c62 581
248 944 585 1142 198 116 448 178 825 206 188 14 1662 5 1890 -11 640 -45 954
-188 1169 -533 108 -173 198 -479 221 -747 3 -41 8 -85 11 -97 l4 -23 822 0
821 0 -7 154 c-36 839 -349 1446 -956 1851 -513 342 -1227 531 -2260 595 -221
14 -1107 20 -1345 10z"/>
<path d="M2620 4834 c-56 -11 -91 -27 -110 -51 -19 -24 -20 -40 -20 -255 l0
-230 -118 -136 c-465 -541 -1355 -1753 -1551 -2113 l-41 -74 0 -731 0 -730 26
-53 c32 -64 86 -106 157 -121 38 -8 921 -10 3192 -8 l3140 3 40 22 c47 25 85
64 111 113 18 33 19 75 22 765 l3 730 -33 65 c-152 300 -1178 1694 -1592 2162
l-86 98 -1 217 c0 254 -5 279 -64 308 -37 19 -60 20 -320 20 -414 0 -395 13
-395 -267 l0 -198 -855 0 -855 0 0 188 c0 211 -4 226 -65 257 -37 18 -62 20
-300 22 -143 0 -271 -1 -285 -3z m670 -1088 c53 -26 105 -96 115 -156 23 -138
-84 -265 -224 -264 -125 1 -221 98 -221 224 0 174 170 275 330 196z m931 3
c73 -36 119 -114 119 -199 0 -129 -95 -223 -225 -223 -168 0 -273 165 -201
319 53 115 193 161 307 103z m929 1 c76 -39 123 -116 123 -200 0 -69 -27 -125
-84 -173 -87 -75 -213 -70 -296 12 -41 39 -73 110 -73 161 0 51 32 122 73 161
69 68 171 83 257 39z m-1864 -778 c50 -26 78 -56 103 -112 37 -82 23 -167 -41
-236 -101 -110 -273 -97 -355 27 -22 33 -28 57 -31 110 -4 59 -1 74 23 118 28
51 80 95 131 111 42 14 126 5 170 -18z m905 13 c145 -52 196 -239 98 -359 -99
-119 -299 -96 -371 43 -49 93 -34 186 40 260 69 68 145 87 233 56z m932 1 c92
-33 150 -114 150 -210 -1 -130 -94 -226 -223 -226 -172 0 -279 176 -200 330
49 96 169 143 273 106z m-1848 -785 c77 -35 135 -122 135 -205 0 -91 -75 -191
-163 -215 -147 -42 -287 63 -287 213 0 131 91 225 220 225 32 0 72 -7 95 -18z
m946 -9 c193 -101 138 -393 -79 -419 -73 -8 -130 12 -183 66 -184 183 32 473
262 353z m930 5 c164 -87 161 -326 -5 -403 -220 -103 -426 163 -268 346 68 80
183 104 273 57z"/>
<path d="M203 4013 c20 -270 126 -399 367 -450 73 -16 137 -18 460 -17 413 0
463 6 585 63 140 65 216 203 226 411 l4 75 -824 3 -824 2 6 -87z"/>
<path d="M6544 4085 c-8 -21 13 -174 33 -231 43 -130 129 -207 273 -248 89
-25 245 -36 514 -36 454 0 592 26 704 134 75 71 116 180 124 326 l3 65 -823 3
c-719 2 -823 0 -828 -13z"/>
</g>
</svg>
