<?xml version="1.0" standalone="no"?>
<!DOCTYPE svg PUBLIC "-//W3C//DTD SVG 20010904//EN"
 "http://www.w3.org/TR/2001/REC-SVG-20010904/DTD/svg10.dtd">
<svg version="1.0" xmlns="http://www.w3.org/2000/svg"
 width="1600.000000pt" height="1200.000000pt" viewBox="0 0 1600.000000 1200.000000"
 preserveAspectRatio="xMidYMid meet">

<g transform="translate(0.000000,1200.000000) scale(0.100000,-0.100000)"
fill="#000000" stroke="none">
<path d="M5840 10943 c-764 -17 -1210 -101 -1555 -295 -553 -311 -968 -828
-1109 -1381 -58 -226 -85 -426 -108 -802 -19 -303 -19 -4650 0 -4940 24 -369
51 -570 108 -792 141 -553 556 -1070 1109 -1381 293 -165 624 -242 1210 -283
231 -17 4257 -24 4703 -9 893 30 1251 111 1660 380 159 104 257 183 388 314
131 131 210 229 314 388 264 402 350 769 380 1618 13 378 13 4095 0 4480 -29
846 -116 1216 -380 1618 -104 159 -183 257 -314 388 -131 131 -229 210 -388
314 -403 265 -766 349 -1623 380 -248 8 -4019 11 -4395 3z m3242 -1573 c37
-209 101 -403 190 -569 209 -395 539 -673 963 -810 114 -38 346 -91 394 -91
l21 0 0 -600 0 -600 -82 5 c-420 29 -724 100 -1003 235 -162 79 -260 146 -382
264 l-103 99 0 -1219 c0 -1298 -1 -1314 -50 -1520 -140 -598 -549 -1103 -1100
-1362 -279 -132 -551 -192 -860 -192 -718 0 -1360 366 -1730 986 -120 202
-208 443 -251 689 -27 155 -32 441 -10 595 50 357 191 687 416 975 79 101 265
282 373 363 265 198 575 326 917 377 117 18 396 22 495 8 l55 -8 6 -185 c4
-102 7 -357 8 -568 1 -361 0 -383 -16 -378 -127 39 -318 47 -451 20 -154 -31
-302 -109 -424 -223 -256 -240 -346 -594 -236 -930 92 -276 304 -485 588 -576
104 -34 299 -45 413 -25 311 55 568 266 686 561 64 161 61 27 61 2490 l0 2239
552 -2 552 -3 8 -45z"/>
<path d="M9064 376 c-40 -18 -74 -62 -74 -96 0 -15 12 -43 28 -63 35 -47 81
-58 132 -31 30 16 35 24 35 54 0 32 -3 35 -32 38 -19 2 -33 -1 -33 -7 0 -6 9
-11 20 -11 32 0 37 -30 9 -52 -30 -25 -86 -18 -111 13 -25 30 -23 94 2 119 23
23 98 28 118 8 6 -6 14 -9 18 -5 7 6 -55 47 -71 47 -5 -1 -24 -7 -41 -14z"/>
<path d="M8552 278 c2 -67 7 -103 15 -105 8 -3 13 11 15 38 l3 42 44 2 c50 3
71 22 71 66 0 39 -33 59 -98 59 l-53 0 3 -102z m116 70 c18 -18 14 -56 -7 -68
-11 -5 -33 -10 -50 -10 -30 0 -31 1 -31 45 l0 45 38 0 c21 0 43 -5 50 -12z"/>
<path d="M8760 281 c0 -77 3 -100 15 -104 12 -5 15 9 17 75 l3 81 59 -76 c32
-43 64 -77 72 -77 11 0 14 21 14 100 0 84 -2 100 -16 100 -13 0 -15 -12 -12
-75 2 -50 -1 -75 -8 -75 -6 0 -35 34 -64 75 -29 41 -59 75 -67 75 -10 0 -13
-23 -13 -99z"/>
<path d="M9420 340 c0 -11 -7 -20 -15 -20 -8 0 -15 -4 -15 -10 0 -5 7 -10 15
-10 11 0 15 -12 15 -48 0 -35 5 -54 18 -65 21 -19 42 -22 42 -7 0 6 -6 10 -14
10 -17 0 -26 22 -26 65 0 25 5 35 20 40 11 3 20 11 20 16 0 5 -9 9 -20 9 -13
0 -20 7 -20 20 0 11 -4 20 -10 20 -5 0 -10 -9 -10 -20z"/>
<path d="M9265 306 c-17 -12 -15 -14 20 -12 29 1 40 -3 43 -15 2 -12 -9 -19
-43 -28 -38 -10 -45 -15 -45 -36 0 -33 41 -55 65 -35 12 10 19 10 27 2 21 -21
26 -13 26 37 1 80 -45 122 -93 87z m63 -88 c-20 -30 -68 -37 -68 -10 0 26 8
32 48 32 33 0 34 -1 20 -22z"/>
<path d="M9535 295 c-33 -33 -32 -68 3 -100 21 -20 34 -25 57 -20 16 3 34 10
40 16 7 7 -1 8 -28 4 -29 -6 -42 -3 -57 10 -28 26 -16 35 46 35 62 0 70 15 29
55 -31 32 -58 32 -90 0z m81 -9 c28 -21 7 -34 -44 -28 -42 4 -42 5 -26 23 20
23 43 24 70 5z"/>
<path d="M9786 299 c-36 -29 -36 -80 1 -109 19 -15 35 -19 53 -15 39 10 52 28
13 20 -44 -9 -73 9 -73 45 0 42 25 63 69 56 34 -6 35 -5 17 9 -27 20 -48 19
-80 -6z"/>
<path d="M9936 294 c-14 -15 -26 -32 -26 -38 1 -31 14 -54 41 -70 74 -44 136
47 76 112 -27 29 -58 28 -91 -4z m90 -19 c21 -33 6 -72 -31 -81 -54 -13 -88
59 -43 90 32 23 55 20 74 -9z"/>
<path d="M10100 245 c0 -43 4 -75 10 -75 6 0 10 22 10 49 0 32 6 55 16 65 35
36 64 10 64 -56 0 -26 5 -48 10 -48 6 0 10 23 10 50 0 44 3 52 25 62 38 17 55
-4 55 -68 0 -30 5 -54 10 -54 6 0 10 25 10 55 0 42 -5 60 -20 75 -23 23 -33
25 -60 8 -16 -10 -24 -10 -41 1 -18 11 -26 11 -47 -1 -20 -10 -26 -10 -29 0
-12 34 -23 4 -23 -63z"/>
<path d="M8315 260 c3 -5 31 -10 61 -10 30 0 54 5 54 10 0 6 -27 10 -61 10
-37 0 -58 -4 -54 -10z"/>
<path d="M9695 190 c-3 -5 1 -10 10 -10 9 0 13 5 10 10 -3 6 -8 10 -10 10 -2
0 -7 -4 -10 -10z"/>
</g>
</svg>
