<?xml version="1.0" standalone="no"?>
<!DOCTYPE svg PUBLIC "-//W3C//DTD SVG 20010904//EN"
 "http://www.w3.org/TR/2001/REC-SVG-20010904/DTD/svg10.dtd">
<svg version="1.0" xmlns="http://www.w3.org/2000/svg"
 width="840.000000pt" height="610.000000pt" viewBox="0 0 840.000000 610.000000"
 preserveAspectRatio="xMidYMid meet">

<g transform="translate(0.000000,610.000000) scale(0.100000,-0.100000)"
fill="#000000" stroke="none">
<path d="M4065 5680 c-349 -19 -681 -106 -1003 -265 -281 -139 -484 -285 -707
-509 -361 -363 -604 -816 -704 -1315 -118 -580 -37 -1179 230 -1702 32 -64 59
-122 59 -130 0 -12 -210 -786 -330 -1217 -17 -62 -30 -117 -28 -121 2 -4 291
68 643 161 352 93 663 174 690 180 48 11 53 10 131 -30 231 -116 477 -196 754
-242 161 -28 495 -38 665 -21 596 60 1157 325 1581 746 470 467 738 1060 773
1712 35 639 -156 1249 -548 1753 -87 112 -273 303 -391 402 -299 251 -685 444
-1065 533 -177 41 -280 54 -550 69 -33 1 -123 0 -200 -4z m520 -469 c224 -42
410 -104 589 -193 434 -217 776 -562 986 -993 101 -207 156 -377 197 -610 24
-142 25 -548 0 -690 -171 -983 -943 -1708 -1932 -1816 -135 -14 -422 -6 -555
16 -266 45 -502 128 -735 260 l-111 63 -402 -106 c-221 -58 -405 -103 -408
-99 -4 3 42 183 100 399 l107 393 -66 110 c-149 246 -242 498 -290 785 -22
132 -30 410 -16 551 74 711 472 1324 1096 1682 225 129 500 221 785 262 145
21 512 13 655 -14z"/>
<path d="M3217 4266 c-117 -42 -260 -233 -308 -413 -30 -108 -30 -287 -1 -395
48 -179 140 -348 316 -582 251 -334 518 -586 806 -762 119 -72 236 -127 415
-194 212 -80 308 -101 445 -101 154 0 206 11 330 73 84 42 120 67 181 128 68
67 79 82 98 143 33 108 47 236 30 272 -16 33 -104 82 -409 227 -145 68 -183
82 -224 83 l-50 0 -84 -105 c-46 -58 -110 -134 -142 -169 -55 -60 -61 -64 -94
-58 -47 8 -220 86 -318 145 -220 131 -412 315 -565 542 -108 160 -108 169 -8
281 45 50 90 113 111 155 31 63 34 75 26 105 -16 53 -228 556 -247 585 -9 14
-32 32 -50 40 -44 18 -207 18 -258 0z"/>
</g>
</svg>
